# xmcd
#
# Track frame offsets: 
#        150
#        13471
#        24931
#        38864
#        50489
#        65771
#        81491
#        94581
#        104529
#        117759
#        127779
#        146539
#        158441
#        171581
#        184571
#        195906
#
# Disc length: 2817 seconds
#
# Revision: 0
# Processed by: cddbd v1.5.2PL0 Copyright (c) Steve Scherf et al.
# Submitted via: ExactAudioCopyFreeDBPlugin 1.0
#
DISCID=d10aff10
DTITLE=尾崎紀世彦 - 尾崎紀世彦スーパーベスト
DYEAR=1900
DGENRE=Blues
TTITLE0=また逢う日まで
TTITLE1=ゴッドファーザー～愛のテーマ
TTITLE2=五月のバラ
TTITLE3=愛する人はひとり
TTITLE4=許しておくれ
TTITLE5=別れの夜明け
TTITLE6=さよならをもう一度
TTITLE7=こころの炎燃やしただけで
TTITLE8=あなたに賭ける
TTITLE9=砂に書いたラブ・レター
TTITLE10=マイ・ウェイ
TTITLE11=ラブ・ミー・トゥナイト
TTITLE12=酒とバラの日々
TTITLE13=太陽は燃えている
TTITLE14=この胸のときめきを
TTITLE15=我が心のジョージア
EXTD=
EXTT0=
EXTT1=
EXTT2=
EXTT3=
EXTT4=
EXTT5=
EXTT6=
EXTT7=
EXTT8=
EXTT9=
EXTT10=
EXTT11=
EXTT12=
EXTT13=
EXTT14=
EXTT15=
PLAYORDER=
